<?xml version="1.0" encoding="UTF-8" standalone="no"?>
<!-- Created with Inkscape (http://www.inkscape.org/) -->

<svg
   xmlns:dc="http://purl.org/dc/elements/1.1/"
   xmlns:cc="http://creativecommons.org/ns#"
   xmlns:rdf="http://www.w3.org/1999/02/22-rdf-syntax-ns#"
   xmlns:svg="http://www.w3.org/2000/svg"
   xmlns="http://www.w3.org/2000/svg"
   xmlns:sodipodi="http://sodipodi.sourceforge.net/DTD/sodipodi-0.dtd"
   xmlns:inkscape="http://www.inkscape.org/namespaces/inkscape"
   width="1544"
   height="500"
   viewBox="0 0 408.51666 132.29167"
   version="1.1"
   id="svg8"
   sodipodi:docname="banner.svg"
   inkscape:export-filename="D:\checkouts\wordpress_repo_svn\embed-google-fonts\assets\banner-772x250.png"
   inkscape:export-xdpi="47.999996"
   inkscape:export-ydpi="47.999996"
   inkscape:version="0.92.3 (2405546, 2018-03-11)">
  <defs
     id="defs2">
    <clipPath
       id="clipPath20"
       clipPathUnits="userSpaceOnUse">
      <path
         inkscape:connector-curvature="0"
         id="path22"
         d="m 0,595.28 841.89,0 L 841.89,0 0,0 0,595.28 Z" />
    </clipPath>
    <clipPath
       id="clipPath92"
       clipPathUnits="userSpaceOnUse">
      <path
         inkscape:connector-curvature="0"
         id="path94"
         d="m 0,595.28 841.89,0 L 841.89,0 0,0 0,595.28 Z" />
    </clipPath>
    <clipPath
       id="clipPath20-4"
       clipPathUnits="userSpaceOnUse">
      <path
         inkscape:connector-curvature="0"
         id="path22-7"
         d="m 0,595.28 841.89,0 L 841.89,0 0,0 0,595.28 z" />
    </clipPath>
    <clipPath
       id="clipPath92-4"
       clipPathUnits="userSpaceOnUse">
      <path
         inkscape:connector-curvature="0"
         id="path94-0"
         d="m 0,595.28 841.89,0 L 841.89,0 0,0 0,595.28 z" />
    </clipPath>
  </defs>
  <sodipodi:namedview
     id="base"
     pagecolor="#2673bc"
     bordercolor="#666666"
     borderopacity="1.0"
     inkscape:pageopacity="1"
     inkscape:pageshadow="2"
     inkscape:zoom="0.7"
     inkscape:cx="478.37546"
     inkscape:cy="175.33363"
     inkscape:document-units="mm"
     inkscape:current-layer="layer1"
     showgrid="false"
     units="px"
     inkscape:window-width="2486"
     inkscape:window-height="1057"
     inkscape:window-x="66"
     inkscape:window-y="-8"
     inkscape:window-maximized="1"
     inkscape:pagecheckerboard="false"
     borderlayer="true" />
  <metadata
     id="metadata5">
    <rdf:RDF>
      <cc:Work
         rdf:about="">
        <dc:format>image/svg+xml</dc:format>
        <dc:type
           rdf:resource="http://purl.org/dc/dcmitype/StillImage" />
        <dc:title />
      </cc:Work>
    </rdf:RDF>
  </metadata>
  <g
     inkscape:label="Ebene 1"
     inkscape:groupmode="layer"
     id="layer1"
     transform="translate(0,-164.70832)">
    <g
       transform="matrix(0.0909292,0,0,-0.0909292,333.59865,317.77082)"
       inkscape:label="Moewe Illustraor Logo"
       id="g10">
      <path
         d="m 79.873848,290.10553 h 12.339406 v 88.0274 H 79.873848 Z"
         style="fill:#ffffff;fill-opacity:1;fill-rule:nonzero;stroke:none"
         id="path32"
         inkscape:export-filename="D:\Cloud\MOEWE\Corporate Identity\Logo\272x61.png"
         inkscape:export-xdpi="48.508015"
         inkscape:export-ydpi="48.508015"
         inkscape:connector-curvature="0" />
      <path
         d="m 79.873848,290.10553 h 12.339406 v 88.0274 H 79.873848 Z"
         style="fill:#ffffff;fill-opacity:1;fill-rule:nonzero;stroke:none"
         id="path34"
         inkscape:export-filename="D:\Cloud\MOEWE\Corporate Identity\Logo\272x61.png"
         inkscape:export-xdpi="48.508015"
         inkscape:export-ydpi="48.508015"
         inkscape:connector-curvature="0" />
      <path
         d="m 42.02892,290.10553 h 12.339408 v 88.0274 H 42.02892 Z"
         style="fill:#ffffff;fill-opacity:1;fill-rule:nonzero;stroke:none"
         id="path36"
         inkscape:export-filename="D:\Cloud\MOEWE\Corporate Identity\Logo\272x61.png"
         inkscape:export-xdpi="48.508015"
         inkscape:export-ydpi="48.508015"
         inkscape:connector-curvature="0" />
      <path
         d="m 42.02892,290.10553 h 12.339408 v 88.0274 H 42.02892 Z"
         style="fill:#ffffff;fill-opacity:1;fill-rule:nonzero;stroke:none"
         id="path38"
         inkscape:export-filename="D:\Cloud\MOEWE\Corporate Identity\Logo\272x61.png"
         inkscape:export-xdpi="48.508015"
         inkscape:export-ydpi="48.508015"
         inkscape:connector-curvature="0" />
      <g
         style="fill:#ffffff"
         id="g40"
         transform="matrix(1.8535985,0,0,1.8535985,117.72042,290.10459)"
         inkscape:export-filename="D:\Cloud\MOEWE\Corporate Identity\Logo\272x61.png"
         inkscape:export-xdpi="48.508015"
         inkscape:export-ydpi="48.508015">
        <path
           d="m 0,0 h 6.656 v 55.304 c 0,2.814 -1.287,5.569 -3.935,8.42 -2.578,2.776 -5.287,4.185 -8.05,4.185 h -43.87 c -2.647,0 -5.262,-1.328 -7.993,-4.061 -2.732,-2.734 -4.061,-5.347 -4.061,-7.993 V 0 h 6.726 v 55.581 c 0,0.953 0.661,2.041 2.146,3.524 1.379,1.379 2.588,2.08 3.596,2.08 h 42.973 c 1.041,0 2.236,-0.655 3.656,-2 C -0.726,57.829 0,56.615 0,55.581 Z"
           style="fill:#ffffff;fill-opacity:1;fill-rule:nonzero;stroke:none"
           id="path42"
           inkscape:connector-curvature="0" />
      </g>
      <g
         style="fill:#ffffff"
         id="g44"
         transform="matrix(1.8535985,0,0,1.8535985,277.28115,408.88153)">
        <path
           style="fill:#ffffff;fill-opacity:1;fill-rule:nonzero;stroke:none"
           d="m 399,320.5625 c -3.5425,0 -6.96625,1.635 -10.5,5 -3.47625,3.22875 -5.25,6.61125 -5.25,10.0625 v 54.84375 c 0,3.30625 1.6775,6.58375 5.09375,10 3.415,3.415 6.66125,5.0625 9.96875,5.0625 h 54.84375 c 3.20375,0 6.53875,-1.695 9.90625,-5.0625 3.425,-3.4275 5.15625,-6.76 5.15625,-9.90625 v -55.03125 c 0,-3.47375 -1.7875,-6.8325 -5.3125,-10.03125 -3.52,-3.2675 -7.025,-4.9375 -10.4375,-4.9375 z m 0.28125,8.5 h 52.9375 c 1.53125,0 3.13,0.81875 4.90625,2.5 1.7575,1.575 2.6875,3.1725 2.6875,4.65625 v 9.875 h -5.59375 c -13.0875,0 -22.995,6.09875 -28.5,16.25 -5.62625,-10.15125 -15.4125,-16.25 -28.5,-16.25 h -5.5625 v -9.78125 c 0,-1.61375 0.88625,-3.22625 2.625,-4.78125 1.74125,-1.6475 3.435,-2.46875 5,-2.46875 z m -7.625,25.375 h 7.03125 c 12.59625,0.61125 22.625,10.75 22.625,23.59375 H 430 c 0,-12.84375 10.1525,-22.9825 22.75,-23.59375 h 7.0625 v 35.5 c 0,1.26 -0.87,2.7775 -2.59375,4.5 -1.85625,1.855 -3.21375,2.6875 -4.40625,2.6875 h -54.15625 c -1.4075,0 -2.95375,-0.8625 -4.59375,-2.59375 -1.65,-1.8425 -2.40625,-3.3175 -2.40625,-4.65625 z"
           transform="matrix(0.8,0,0,-0.8,-370.3345,260.3884)"
           id="path46"
           inkscape:export-filename="D:\Cloud\MOEWE\Corporate Identity\Logo\72x72.png"
           inkscape:export-xdpi="76.263329"
           inkscape:export-ydpi="76.263329"
           inkscape:connector-curvature="0" />
      </g>
      <path
         d="m 752.52991,378.21449 h -88.02736 v -12.3357 h 88.02736 z"
         style="fill:#ffffff;fill-opacity:1;fill-rule:nonzero;stroke:none"
         id="path48"
         inkscape:export-filename="D:\Cloud\MOEWE\Corporate Identity\Logo\272x61.png"
         inkscape:export-xdpi="48.508015"
         inkscape:export-ydpi="48.508015"
         inkscape:connector-curvature="0" />
      <path
         d="m 752.52991,378.21449 h -88.02736 v -12.3357 h 88.02736 z"
         style="fill:#ffffff;fill-opacity:1;fill-rule:nonzero;stroke:none"
         id="path50"
         inkscape:export-filename="D:\Cloud\MOEWE\Corporate Identity\Logo\272x61.png"
         inkscape:export-xdpi="48.508015"
         inkscape:export-ydpi="48.508015"
         inkscape:connector-curvature="0" />
      <path
         d="M 752.52991,340.36956 H 664.50255 V 328.032 h 88.02736 z"
         style="fill:#ffffff;fill-opacity:1;fill-rule:nonzero;stroke:none"
         id="path52"
         inkscape:export-filename="D:\Cloud\MOEWE\Corporate Identity\Logo\272x61.png"
         inkscape:export-xdpi="48.508015"
         inkscape:export-ydpi="48.508015"
         inkscape:connector-curvature="0" />
      <path
         d="M 752.52991,340.36956 H 664.50255 V 328.032 h 88.02736 z"
         style="fill:#ffffff;fill-opacity:1;fill-rule:nonzero;stroke:none"
         id="path54"
         inkscape:export-filename="D:\Cloud\MOEWE\Corporate Identity\Logo\272x61.png"
         inkscape:export-xdpi="48.508015"
         inkscape:export-ydpi="48.508015"
         inkscape:connector-curvature="0" />
      <g
         style="fill:#ffffff"
         id="g56"
         transform="matrix(1.8535985,0,0,1.8535985,752.52922,403.72074)"
         inkscape:export-filename="D:\Cloud\MOEWE\Corporate Identity\Logo\272x61.png"
         inkscape:export-xdpi="48.508015"
         inkscape:export-ydpi="48.508015">
        <path
           d="m 0,0 v 6.656 h -55.304 c -2.815,0 -5.569,-1.287 -8.42,-3.934 -2.776,-2.578 -4.184,-5.286 -4.184,-8.05 v -43.87 c 0,-2.648 1.328,-5.263 4.059,-7.993 2.734,-2.733 5.349,-4.062 7.995,-4.062 H 0 v 6.727 h -55.58 c -0.955,0 -2.041,0.661 -3.525,2.145 -1.379,1.379 -2.08,2.589 -2.08,3.597 v 42.972 c 0,1.041 0.654,2.237 2,3.656 1.357,1.43 2.57,2.156 3.605,2.156 z"
           style="fill:#ffffff;fill-opacity:1;fill-rule:nonzero;stroke:none"
           id="path58"
           inkscape:connector-curvature="0" />
      </g>
      <path
         d="m 521.46959,415.96116 h -12.33755 v -88.02925 h 12.33755 z"
         style="fill:#ffffff;fill-opacity:1;fill-rule:nonzero;stroke:none"
         id="path60"
         inkscape:export-filename="D:\Cloud\MOEWE\Corporate Identity\Logo\272x61.png"
         inkscape:export-xdpi="48.508015"
         inkscape:export-ydpi="48.508015"
         inkscape:connector-curvature="0" />
      <path
         d="m 521.46959,415.96116 h -12.33755 v -88.02925 h 12.33755 z"
         style="fill:#ffffff;fill-opacity:1;fill-rule:nonzero;stroke:none"
         id="path62"
         inkscape:export-filename="D:\Cloud\MOEWE\Corporate Identity\Logo\272x61.png"
         inkscape:export-xdpi="48.508015"
         inkscape:export-ydpi="48.508015"
         inkscape:connector-curvature="0" />
      <path
         d="m 559.31637,415.96116 h -12.33941 v -88.02925 h 12.33941 z"
         style="fill:#ffffff;fill-opacity:1;fill-rule:nonzero;stroke:none"
         id="path64"
         inkscape:export-filename="D:\Cloud\MOEWE\Corporate Identity\Logo\272x61.png"
         inkscape:export-xdpi="48.508015"
         inkscape:export-ydpi="48.508015"
         inkscape:connector-curvature="0" />
      <path
         d="m 559.31637,415.96116 h -12.33941 v -88.02925 h 12.33941 z"
         style="fill:#ffffff;fill-opacity:1;fill-rule:nonzero;stroke:none"
         id="path66"
         inkscape:export-filename="D:\Cloud\MOEWE\Corporate Identity\Logo\272x61.png"
         inkscape:export-xdpi="48.508015"
         inkscape:export-ydpi="48.508015"
         inkscape:connector-curvature="0" />
      <g
         style="fill:#ffffff"
         id="g68"
         transform="matrix(1.8535985,0,0,1.8535985,483.62336,415.9619)"
         inkscape:export-filename="D:\Cloud\MOEWE\Corporate Identity\Logo\272x61.png"
         inkscape:export-xdpi="48.508015"
         inkscape:export-ydpi="48.508015">
        <path
           d="m 0,0 h -6.655 v -55.304 c 0,-2.815 1.286,-5.569 3.933,-8.42 2.579,-2.776 5.287,-4.185 8.05,-4.185 h 43.87 c 2.649,0 5.263,1.328 7.993,4.06 2.733,2.734 4.063,5.349 4.063,7.993 V 0 h -6.727 v -55.581 c 0,-0.954 -0.662,-2.041 -2.146,-3.525 -1.379,-1.379 -2.588,-2.079 -3.596,-2.079 H 5.813 c -1.042,0 -2.237,0.654 -3.657,1.999 C 0.727,-57.829 0,-56.616 0,-55.581 Z"
           style="fill:#ffffff;fill-opacity:1;fill-rule:nonzero;stroke:none"
           id="path70"
           inkscape:connector-curvature="0" />
      </g>
      <path
         d="m 440.56558,378.11625 h -88.02924 v -12.33756 h 88.02924 z"
         style="fill:#ffffff;fill-opacity:1;fill-rule:nonzero;stroke:none"
         id="path72"
         inkscape:export-filename="D:\Cloud\MOEWE\Corporate Identity\Logo\272x61.png"
         inkscape:export-xdpi="48.508015"
         inkscape:export-ydpi="48.508015"
         inkscape:connector-curvature="0" />
      <path
         d="m 440.56558,378.11625 h -88.02924 v -12.33756 h 88.02924 z"
         style="fill:#ffffff;fill-opacity:1;fill-rule:nonzero;stroke:none"
         id="path74"
         inkscape:export-filename="D:\Cloud\MOEWE\Corporate Identity\Logo\272x61.png"
         inkscape:export-xdpi="48.508015"
         inkscape:export-ydpi="48.508015"
         inkscape:connector-curvature="0" />
      <path
         d="m 440.56558,340.27132 h -88.02924 v -12.33941 h 88.02924 z"
         style="fill:#ffffff;fill-opacity:1;fill-rule:nonzero;stroke:none"
         id="path76"
         inkscape:export-filename="D:\Cloud\MOEWE\Corporate Identity\Logo\272x61.png"
         inkscape:export-xdpi="48.508015"
         inkscape:export-ydpi="48.508015"
         inkscape:connector-curvature="0" />
      <path
         d="m 440.56558,340.27132 h -88.02924 v -12.33941 h 88.02924 z"
         style="fill:#ffffff;fill-opacity:1;fill-rule:nonzero;stroke:none"
         id="path78"
         inkscape:export-filename="D:\Cloud\MOEWE\Corporate Identity\Logo\272x61.png"
         inkscape:export-xdpi="48.508015"
         inkscape:export-ydpi="48.508015"
         inkscape:connector-curvature="0" />
      <g
         style="fill:#ffffff"
         id="g80"
         transform="matrix(1.8535985,0,0,1.8535985,440.56706,403.62305)"
         inkscape:export-filename="D:\Cloud\MOEWE\Corporate Identity\Logo\272x61.png"
         inkscape:export-xdpi="48.508015"
         inkscape:export-ydpi="48.508015">
        <path
           d="m 0,0 v 6.656 h -55.305 c -2.815,0 -5.569,-1.287 -8.42,-3.934 -2.776,-2.578 -4.185,-5.286 -4.185,-8.05 v -43.87 c 0,-2.648 1.328,-5.263 4.06,-7.992 2.734,-2.734 5.349,-4.063 7.994,-4.063 H 0 v 6.727 h -55.582 c -0.954,0 -2.041,0.661 -3.525,2.145 -1.378,1.379 -2.079,2.589 -2.079,3.597 v 42.972 c 0,1.041 0.655,2.237 1.999,3.656 1.357,1.43 2.57,2.156 3.605,2.156 z"
           style="fill:#ffffff;fill-opacity:1;fill-rule:nonzero;stroke:none"
           id="path82"
           inkscape:connector-curvature="0" />
      </g>
    </g>
    <flowRoot
       xml:space="preserve"
       id="flowRoot959"
       style="font-style:normal;font-variant:normal;font-weight:normal;font-stretch:normal;font-size:24px;line-height:47.65984344px;font-family:Raleway;-inkscape-font-specification:Raleway;letter-spacing:0px;word-spacing:0px;fill:#ffffff;fill-opacity:1;stroke:none;stroke-width:1px;stroke-linecap:butt;stroke-linejoin:miter;stroke-opacity:1"
       transform="matrix(0.26458333,0,0,0.26458333,146.95717,200.69166)"><flowRegion
         id="flowRegion961"
         style="font-size:24px;line-height:47.65984344px;fill:#ffffff;fill-opacity:1"><rect
           id="rect963"
           width="178.57143"
           height="54.285713"
           x="668.57141"
           y="312.85715"
           style="font-size:24px;line-height:47.65984344px;fill:#ffffff;fill-opacity:1" /></flowRegion><flowPara
         id="flowPara965">by</flowPara></flowRoot>    <flowRoot
       xml:space="preserve"
       id="flowRoot967"
       style="font-style:normal;font-variant:normal;font-weight:normal;font-stretch:normal;font-size:42.66666794px;line-height:47.65984344px;font-family:Raleway;-inkscape-font-specification:Raleway;letter-spacing:0px;word-spacing:0px;fill:#ffffff;fill-opacity:1;stroke:none;stroke-width:1px;stroke-linecap:butt;stroke-linejoin:miter;stroke-opacity:1"
       transform="matrix(0.26458333,0,0,0.26458333,0,164.70832)"><flowRegion
         id="flowRegion969"
         style="font-size:42.66666794px;line-height:47.65984344px;fill:#ffffff;fill-opacity:1"><rect
           id="rect971"
           width="1070"
           height="248.57144"
           x="94.285713"
           y="91.428574"
           style="font-size:42.66666794px;line-height:47.65984344px;fill:#ffffff;fill-opacity:1" /></flowRegion><flowPara
         id="flowPara973">A basic proxy, which allows other OpenStreetMap plugins to load map tiles from your server instead from OpenStreetMap servers</flowPara></flowRoot>    <text
       xml:space="preserve"
       style="font-style:normal;font-variant:normal;font-weight:normal;font-stretch:normal;font-size:11.28888893px;line-height:6.61458302px;font-family:Raleway;-inkscape-font-specification:Raleway;letter-spacing:0px;word-spacing:0px;fill:#ffffff;fill-opacity:1;stroke:none;stroke-width:0.26458332px;stroke-linecap:butt;stroke-linejoin:miter;stroke-opacity:1"
       x="14.287501"
       y="199.48213"
       id="text977"><tspan
         sodipodi:role="line"
         id="tspan975"
         x="14.287501"
         y="199.48213"
         style="font-size:11.28888893px;fill:#ffffff;fill-opacity:1;stroke-width:0.26458332px">✔ </tspan></text>
  </g>
</svg>
